<?xml version="1.0" ?><svg viewBox="0 0 64 64" xmlns="http://www.w3.org/2000/svg"><g id="Outline"><g data-name="Outline" id="Outline-2"><path d="M46.19,37.26a20.5,20.5,0,1,0-28.38,0L8.07,54.12a1,1,0,0,0,0,1.08,1,1,0,0,0,1,.41l8.22-1.54L20.12,62a1,1,0,0,0,1.81.16L32,44.68,42.07,62.12A1,1,0,0,0,43.88,62l2.78-7.89,8.22,1.54a1,1,0,0,0,1-.41,1,1,0,0,0,0-1.08ZM13.5,22.5A18.5,18.5,0,1,1,32,41,18.52,18.52,0,0,1,13.5,22.5Zm5.85,16.1c.52.41,1.07.8,1.63,1.16l-7.51,13-2.58.48ZM17.82,52l-1.76.32,6.65-11.52a20.48,20.48,0,0,0,3.77,1.47L19.53,54.27l-.59-1.67A1,1,0,0,0,17.82,52Zm3.46,7.29-.87-2.49,8.11-14.07a19.38,19.38,0,0,0,2.18.25Zm21.44,0L33.3,42.93a19.38,19.38,0,0,0,2.18-.25l8.11,14.07ZM46.18,52a1,1,0,0,0-1.12.65l-.59,1.67L37.52,42.22a20.48,20.48,0,0,0,3.77-1.47l6.65,11.52Zm4.35.81L43,39.76c.56-.36,1.11-.75,1.63-1.16l8.46,14.64Z"/><path d="M25.54,24.49a.5.5,0,0,1,.14.42l-.36,3a2.48,2.48,0,0,0,1,2.33,2.59,2.59,0,0,0,2.6.28l2.81-1.26a.55.55,0,0,1,.5,0l2.81,1.26a2.59,2.59,0,0,0,2.6-.28,2.48,2.48,0,0,0,1-2.33l-.36-3a.5.5,0,0,1,.14-.42l2.1-2.22a2.5,2.5,0,0,0,.57-2.5,2.56,2.56,0,0,0-2-1.73l-3-.59a.58.58,0,0,1-.39-.27l-1.51-2.64a2.59,2.59,0,0,0-4.48,0l-1.51,2.64a.58.58,0,0,1-.39.27l-3,.59a2.56,2.56,0,0,0-2,1.73,2.5,2.5,0,0,0,.57,2.5Zm-.76-4.11a.53.53,0,0,1,.43-.37l3-.6A2.53,2.53,0,0,0,30,18.17l1.51-2.63a.59.59,0,0,1,1,0L34,18.17a2.53,2.53,0,0,0,1.74,1.24l3,.6a.53.53,0,0,1,.43.37.47.47,0,0,1-.12.51L37,23.11a2.56,2.56,0,0,0-.68,2l.37,3a.52.52,0,0,1-.22.48.57.57,0,0,1-.6.07l-2.81-1.27a2.66,2.66,0,0,0-2.14,0L28.12,28.7a.56.56,0,0,1-.6-.07.52.52,0,0,1-.22-.48l.37-3a2.55,2.55,0,0,0-.68-2L24.9,20.89A.47.47,0,0,1,24.78,20.38Z"/><path d="M32,7a15.5,15.5,0,0,0-4.28,30.4,1,1,0,0,0,.56-1.92,13.5,13.5,0,1,1,7.44,0A1,1,0,0,0,35,36.72a1,1,0,0,0,1,.72,1,1,0,0,0,.28,0A15.5,15.5,0,0,0,32,7Z"/><circle cx="32" cy="37" r="1"/></g></g></svg>